<svg width="38" height="38" viewBox="0 0 38 38" fill="none" xmlns="http://www.w3.org/2000/svg">
<g filter="url(#filter0_d_201_10719)">
<g clip-path="url(#clip0_201_10719)">
<path d="M32.8427 8.23204L30.172 10.9027C29.8998 11.175 29.4595 11.175 29.1872 10.9027L22.7568 4.47229C22.4845 4.20002 22.4845 3.75974 22.7568 3.48746L25.4275 0.816822C26.5108 -0.266496 28.2719 -0.266496 29.361 0.816822L32.8427 4.2985C33.9318 5.38182 33.9318 7.14293 32.8427 8.23204ZM20.4627 5.78155L5.24995 20.9943L4.0218 28.033C3.8538 28.9831 4.68222 29.8057 5.63229 29.6435L12.671 28.4096L27.8838 13.1968C28.156 12.9245 28.156 12.4842 27.8838 12.2119L21.4534 5.78155C21.1753 5.50927 20.735 5.50927 20.4627 5.78155ZM11.1879 19.6909C10.8693 19.3723 10.8693 18.8625 11.1879 18.5438L20.1094 9.6224C20.428 9.30378 20.9378 9.30378 21.2564 9.6224C21.575 9.94102 21.575 10.4508 21.2564 10.7694L12.335 19.6909C12.0163 20.0095 11.5065 20.0095 11.1879 19.6909ZM9.09659 24.5629H11.8773V26.6658L8.14072 27.3204L6.33906 25.5188L6.99368 21.7822H9.09659V24.5629Z" fill="#01D48D"/>
</g>
</g>
<defs>
<filter id="filter0_d_201_10719" x="-0.00195312" y="0" width="37.6611" height="37.6609" filterUnits="userSpaceOnUse" color-interpolation-filters="sRGB">
<feFlood flood-opacity="0" result="BackgroundImageFix"/>
<feColorMatrix in="SourceAlpha" type="matrix" values="0 0 0 0 0 0 0 0 0 0 0 0 0 0 0 0 0 0 127 0" result="hardAlpha"/>
<feOffset dy="4"/>
<feGaussianBlur stdDeviation="2"/>
<feComposite in2="hardAlpha" operator="out"/>
<feColorMatrix type="matrix" values="0 0 0 0 0 0 0 0 0 0 0 0 0 0 0 0 0 0 0.25 0"/>
<feBlend mode="normal" in2="BackgroundImageFix" result="effect1_dropShadow_201_10719"/>
<feBlend mode="normal" in="SourceGraphic" in2="effect1_dropShadow_201_10719" result="shape"/>
</filter>
<clipPath id="clip0_201_10719">
<rect width="29.6609" height="29.6609" fill="white" transform="translate(3.99805)"/>
</clipPath>
</defs>
</svg>
