<svg width="38" height="38" viewBox="0 0 38 38" fill="none" xmlns="http://www.w3.org/2000/svg">
<g filter="url(#filter0_d_201_10519)">
<g clip-path="url(#clip0_201_10519)">
<path d="M33.2554 25.6463L27.4796 19.8705C27.2189 19.6098 26.8655 19.465 26.4948 19.465H25.5505C27.1494 17.42 28.0995 14.8479 28.0995 12.0498C28.0995 5.39345 22.7061 3.05176e-05 16.0497 3.05176e-05C9.39342 3.05176e-05 4 5.39345 4 12.0498C4 18.7061 9.39342 24.0995 16.0497 24.0995C18.8478 24.0995 21.42 23.1494 23.465 21.5505V22.4948C23.465 22.8656 23.6098 23.2189 23.8705 23.4796L29.6462 29.2554C30.1908 29.8 31.0714 29.8 31.6101 29.2554L33.2496 27.6159C33.7941 27.0714 33.7941 26.1908 33.2554 25.6463ZM16.0497 19.465C11.954 19.465 8.63451 16.1513 8.63451 12.0498C8.63451 7.95402 11.9482 4.63454 16.0497 4.63454C20.1455 4.63454 23.465 7.94822 23.465 12.0498C23.465 16.1455 20.1513 19.465 16.0497 19.465Z" fill="#01D48D"/>
</g>
</g>
<defs>
<filter id="filter0_d_201_10519" x="0" y="0" width="37.6611" height="37.6609" filterUnits="userSpaceOnUse" color-interpolation-filters="sRGB">
<feFlood flood-opacity="0" result="BackgroundImageFix"/>
<feColorMatrix in="SourceAlpha" type="matrix" values="0 0 0 0 0 0 0 0 0 0 0 0 0 0 0 0 0 0 127 0" result="hardAlpha"/>
<feOffset dy="4"/>
<feGaussianBlur stdDeviation="2"/>
<feComposite in2="hardAlpha" operator="out"/>
<feColorMatrix type="matrix" values="0 0 0 0 0 0 0 0 0 0 0 0 0 0 0 0 0 0 0.25 0"/>
<feBlend mode="normal" in2="BackgroundImageFix" result="effect1_dropShadow_201_10519"/>
<feBlend mode="normal" in="SourceGraphic" in2="effect1_dropShadow_201_10519" result="shape"/>
</filter>
<clipPath id="clip0_201_10519">
<rect width="29.6609" height="29.6609" fill="white" transform="translate(4)"/>
</clipPath>
</defs>
</svg>
