<svg width="34" height="36" viewBox="0 0 34 36" fill="none" xmlns="http://www.w3.org/2000/svg">
<g filter="url(#filter0_d_201_10413)">
<g clip-path="url(#clip0_201_10413)">
<path d="M4.92618 9.26901H7.70689V26.8802C7.70689 27.126 7.80455 27.3618 7.97838 27.5356C8.1522 27.7094 8.38797 27.8071 8.6338 27.8071H10.4876C10.7334 27.8071 10.9692 27.7094 11.143 27.5356C11.3168 27.3618 11.4145 27.126 11.4145 26.8802V9.26901H14.1952C15.0184 9.26901 15.4338 8.27027 14.8504 7.68691L10.2159 2.12549C10.0421 1.95179 9.80642 1.85422 9.5607 1.85422C9.31497 1.85422 9.0793 1.95179 8.90549 2.12549L4.27098 7.68691C3.68935 8.26912 4.1024 9.26901 4.92618 9.26901ZM28.0988 16.6842H20.6835C20.4377 16.6842 20.2019 16.7819 20.0281 16.9557C19.8543 17.1295 19.7566 17.3653 19.7566 17.6111V19.4649C19.7566 19.7108 19.8543 19.9465 20.0281 20.1204C20.2019 20.2942 20.4377 20.3918 20.6835 20.3918H23.9277L20.3788 24.4731C20.1831 24.6471 20.0265 24.8605 19.9193 25.0993C19.812 25.3382 19.7566 25.597 19.7566 25.8588V26.8802C19.7566 27.126 19.8543 27.3618 20.0281 27.5356C20.2019 27.7094 20.4377 27.8071 20.6835 27.8071H28.0988C28.3446 27.8071 28.5803 27.7094 28.7542 27.5356C28.928 27.3618 29.0257 27.126 29.0257 26.8802V25.0264C29.0257 24.7805 28.928 24.5448 28.7542 24.3709C28.5803 24.1971 28.3446 24.0995 28.0988 24.0995H24.8546L28.4035 20.0182C28.5992 19.8442 28.7558 19.6308 28.863 19.392C28.9703 19.1531 29.0257 18.8943 29.0257 18.6325V17.6111C29.0257 17.3653 28.928 17.1295 28.7542 16.9557C28.5803 16.7819 28.3446 16.6842 28.0988 16.6842ZM29.8981 11.738L26.4645 2.46902C26.4002 2.28895 26.2818 2.13317 26.1255 2.02303C25.9692 1.91288 25.7827 1.85377 25.5915 1.85379H23.1908C22.9996 1.85377 22.8131 1.91288 22.6568 2.02303C22.5005 2.13317 22.3821 2.28895 22.3178 2.46902L18.8842 11.738C18.8343 11.8779 18.8187 12.0277 18.8387 12.1748C18.8587 12.3219 18.9138 12.4621 18.9993 12.5835C19.0848 12.7049 19.1983 12.804 19.3301 12.8724C19.4618 12.9408 19.6081 12.9765 19.7566 12.9766H21.1951C21.3911 12.9767 21.5821 12.9146 21.7407 12.7993C21.8992 12.6839 22.0171 12.5213 22.0774 12.3347L22.3334 11.5863H26.4466L26.702 12.3347C26.7624 12.5217 26.8807 12.6846 27.0397 12.7999C27.1987 12.9153 27.3902 12.9772 27.5866 12.9766H29.0257C29.1741 12.9765 29.3204 12.9408 29.4522 12.8724C29.584 12.804 29.6974 12.7049 29.783 12.5835C29.8685 12.4621 29.9236 12.3219 29.9436 12.1748C29.9636 12.0277 29.948 11.8779 29.8981 11.738ZM23.4416 8.34211L24.3911 5.5614L25.3406 8.34211H23.4416Z" fill="#01D48D"/>
</g>
</g>
<defs>
<filter id="filter0_d_201_10413" x="0" y="0" width="33.9531" height="37.6609" filterUnits="userSpaceOnUse" color-interpolation-filters="sRGB">
<feFlood flood-opacity="0" result="BackgroundImageFix"/>
<feColorMatrix in="SourceAlpha" type="matrix" values="0 0 0 0 0 0 0 0 0 0 0 0 0 0 0 0 0 0 127 0" result="hardAlpha"/>
<feOffset dy="4"/>
<feGaussianBlur stdDeviation="2"/>
<feComposite in2="hardAlpha" operator="out"/>
<feColorMatrix type="matrix" values="0 0 0 0 0 0 0 0 0 0 0 0 0 0 0 0 0 0 0.25 0"/>
<feBlend mode="normal" in2="BackgroundImageFix" result="effect1_dropShadow_201_10413"/>
<feBlend mode="normal" in="SourceGraphic" in2="effect1_dropShadow_201_10413" result="shape"/>
</filter>
<clipPath id="clip0_201_10413">
<rect width="25.9533" height="29.6609" fill="white" transform="translate(4)"/>
</clipPath>
</defs>
</svg>
