<svg width="30" height="28" viewBox="0 0 30 28" fill="none" xmlns="http://www.w3.org/2000/svg">
<g filter="url(#filter0_d_201_12610)">
<g clip-path="url(#clip0_201_12610)">
<path d="M23.2145 1.32513H5.98771C4.89033 1.32513 4 2.21546 4 3.31284V17.8893C4 18.9867 4.89033 19.8771 5.98771 19.8771H23.2145C24.3119 19.8771 25.2022 18.9867 25.2022 17.8893V3.31284C25.2022 2.21546 24.3119 1.32513 23.2145 1.32513ZM23.2145 17.6409C23.2145 17.7775 23.1027 17.8893 22.966 17.8893H6.23617C6.09951 17.8893 5.98771 17.7775 5.98771 17.6409V3.5613C5.98771 3.42465 6.09951 3.31284 6.23617 3.31284H22.966C23.1027 3.31284 23.2145 3.42465 23.2145 3.5613V17.6409ZM18.7629 8.05849L16.2203 10.6011L18.7629 13.1437C18.9533 13.3342 18.9533 13.6448 18.7629 13.8394L17.8394 14.7629C17.6489 14.9533 17.3383 14.9533 17.1437 14.7629L14.6011 12.2202L12.0585 14.7629C11.868 14.9533 11.5574 14.9533 11.3628 14.7629L10.4393 13.8394C10.2489 13.6489 10.2489 13.3383 10.4393 13.1437L12.9819 10.6011L10.4393 8.05849C10.2489 7.868 10.2489 7.55742 10.4393 7.36279L11.3628 6.43934C11.5533 6.24885 11.8639 6.24885 12.0585 6.43934L14.6011 8.98194L17.1437 6.43934C17.3342 6.24885 17.6448 6.24885 17.8394 6.43934L18.7629 7.36279C18.9575 7.55328 18.9575 7.86386 18.7629 8.05849Z" fill="black"/>
</g>
</g>
<defs>
<filter id="filter0_d_201_12610" x="0" y="0" width="29.2021" height="29.2022" filterUnits="userSpaceOnUse" color-interpolation-filters="sRGB">
<feFlood flood-opacity="0" result="BackgroundImageFix"/>
<feColorMatrix in="SourceAlpha" type="matrix" values="0 0 0 0 0 0 0 0 0 0 0 0 0 0 0 0 0 0 127 0" result="hardAlpha"/>
<feOffset dy="4"/>
<feGaussianBlur stdDeviation="2"/>
<feComposite in2="hardAlpha" operator="out"/>
<feColorMatrix type="matrix" values="0 0 0 0 0 0 0 0 0 0 0 0 0 0 0 0 0 0 0.25 0"/>
<feBlend mode="normal" in2="BackgroundImageFix" result="effect1_dropShadow_201_12610"/>
<feBlend mode="normal" in="SourceGraphic" in2="effect1_dropShadow_201_12610" result="shape"/>
</filter>
<clipPath id="clip0_201_12610">
<rect width="21.2022" height="21.2022" fill="white" transform="translate(4)"/>
</clipPath>
</defs>
</svg>
